<svg xmlns="http://www.w3.org/2000/svg" xmlns:xlink="http://www.w3.org/1999/xlink" version="1.1" id="Layer_1" x="0px" y="0px" width="100px" height="100px" viewBox="0 0 100 100" enable-background="new 0 0 100 100" xml:space="preserve">
<path d="M31.805,41.953c0-5.497,2.443-10.57,6.546-14.639c-0.238-0.004-0.474-0.013-0.712-0.013  c-16.615,0-30.087,9.948-30.087,22.221c0,9.36,7.837,17.36,18.926,20.634l-0.585,12.604l8.693-11.016c0,0,1.642,0,3.053,0  c7.925,0,15.129-2.267,20.502-5.965C43.185,63.725,31.805,53.826,31.805,41.953z"/>
<g>
	<path d="M76.966,82.062l-11.95-15.139h-2.081c-17.693,0-32.089-10.865-32.089-24.223c0-13.355,14.396-24.221,32.089-24.221   c17.691,0,32.085,10.866,32.085,24.221c0,9.637-7.348,18.172-18.857,22.078L76.966,82.062z M62.935,22.48   c-15.487,0-28.089,9.071-28.089,20.221c0,11.15,12.602,20.223,28.089,20.223h4.021l5.437,6.889l-0.369-7.949l1.504-0.443   C84.153,58.281,91.02,50.934,91.02,42.701C91.02,31.551,78.421,22.48,62.935,22.48z"/>
</g>
</svg>