<svg xmlns="http://www.w3.org/2000/svg" xmlns:xlink="http://www.w3.org/1999/xlink" version="1.1" id="User_Icon" x="0px" y="0px" width="100px" height="100px" viewBox="0 0 100 100" enable-background="new 0 0 100 100" xml:space="preserve">
<path fill="#000000" d="M30.852,38.023c-1.408,0-2.652-0.076-3.654-0.138c-0.421-0.026-0.807-0.05-1.158-0.065  c-0.349-0.016-0.678-0.023-0.99-0.023c-0.18,0-0.356,0.002-0.53,0.007c0.638-0.146,1.41-0.266,2.207-0.266  c0.134,0,0.269,0.003,0.406,0.011c0.164,0.01,0.336,0.011,0.516,0.011l0.664,0c0.45,0.008,0.951,0.015,1.493,0.015  c0.765,0,1.462-0.015,2.127-0.047c8.456-0.395,16.201-3.822,23.679-10.476c3.688-3.283,6.576-7.176,8.577-11.567  c0.092-0.15,1.95-3.197,2.988-5.056c-0.775,3.165-3.488,11.358-11.829,18.11C47.462,34.92,39.45,38.023,30.852,38.023z"/>
<g>
	<path fill="#000000" d="M59.676,29.597c-0.644,0.595-1.322,1.185-2.039,1.766C49.076,38.292,40.315,41.66,30.852,41.66   c-0.716,0-1.381-0.019-2-0.045c-0.962,4.879-0.518,9.963,1.034,14.701c1.844,5.633,5.264,10.726,9.588,14.753   c2.475,2.308,5.787,4.669,9.352,4.669h0.139c3.566,0,6.878-2.361,9.351-4.669c4.325-4.027,7.745-9.12,9.59-14.753   c1.413-4.317,1.931-11.862,1.294-17.69C62.648,36.432,60.325,32.781,59.676,29.597z"/>
	<path fill="#000000" d="M77.747,27.369c-0.178-6.474-2.727-12.417-6.817-17.064c-0.478,2.479-2.438,10.126-9.373,17.437   c0.097,2.926,1.593,6.715,8.479,8.963c4.923,1.607,6.847,4.228,7.467,6.754c0.041,0.169,0.081,0.34,0.109,0.509l0.019-0.299   C77.739,36.807,77.786,28.697,77.747,27.369z"/>
</g>
<path fill="#000000" d="M68.22,7.818c-5.004-4.58-11.763-7.39-19.203-7.39c-15.413,0-27.908,12.062-27.908,26.941  c0,0-0.412,7.811,0.677,12.309c0.594-0.163,1.273-0.308,1.993-0.355c0.137-0.009,0.274-0.015,0.413-0.018  c0.167-0.001,0.342-0.012,0.526-0.023l0.674-0.043c0.459-0.022,0.968-0.049,1.519-0.084c0.779-0.051,1.486-0.113,2.161-0.188  c8.574-0.957,16.228-4.892,23.397-12.029c3.539-3.521,6.223-7.598,7.97-12.115c0.088-0.155,1.777-3.319,2.713-5.244  c-0.584,3.21-2.81,11.566-10.852,18.858c-7.496,6.796-15.327,10.414-23.927,11.063c5.612,0.286,15.743,0.12,27.949-9.762  c11.25-9.107,12.672-20.508,12.672-20.508l0.057-0.62C68.779,8.342,68.503,8.077,68.22,7.818z"/>
<path fill="#000000" d="M79.745,79.541c-0.698-2.166-1.841-6.726-2.202-10.804c-0.431-4.847-0.497-13.602-0.452-19.172  c0.028-3.888-1.632-6.038-2.074-6.823c-0.669-1.324-1.871-2.404-3.638-3.256c0.509,6.025-0.089,13.208-1.488,17.48  c-1.515,4.619-4.042,8.974-7.387,12.784l-0.032,0.681c0.049,1.232,0.235,2.779,0.8,3.818c0.534-0.051,1.23,0.038,1.974,0.547  c1.598,1.085,11.027,5.55,14.983,5.982C80.229,80.778,80.035,80.376,79.745,79.541z"/>
<g>
	<path fill="#000000" d="M96.854,99.294c-0.386-3.677-2.129-9.432-4.499-12.335c-2.371-2.902-9.144-3.74-9.144-3.74l-3.293-0.362   c-4.452-0.489-14.306-5.229-15.931-6.335c-0.19-0.132-0.366-0.193-0.534-0.193c-0.021,0-0.045,0-0.067,0.002l-1.369,0.127   l-0.658-1.206c-0.377-0.696-0.648-1.532-0.83-2.559L60.4,71.964c-0.221,0.215-0.436,0.426-0.661,0.634   c-3.778,3.519-7.301,5.23-10.776,5.23h-0.139c-3.011,0-6.062-1.29-9.284-3.928c-0.149,0.501-0.328,0.951-0.545,1.351l-0.658,1.206   l-1.369-0.125c-0.021-0.004-0.043-0.004-0.067-0.004c-0.167,0-0.342,0.062-0.535,0.193c-1.622,1.107-11.476,5.846-15.931,6.335   l-3.291,0.362c0,0-6.774,0.838-9.144,3.742c-2.371,2.901-4.112,8.658-4.499,12.333h46.725h-0.098H96.854z"/>
</g>
<path fill="#000000" d="M27.899,56.966c-1.685-5.143-2.073-10.483-1.144-15.464c-0.314-0.021-0.611-0.037-0.879-0.048  c-0.292-0.015-0.566-0.021-0.826-0.021c-1.716,0-2.697,0.257-2.707,0.261l-0.35,0.094c0.341,3.701,0.964,11.628,0.76,18.426  c-0.435,14.511-2.546,20.565-2.546,20.565c3.954-0.433,13.386-4.897,14.982-5.982c0.744-0.509,1.44-0.598,1.972-0.547  c0.294-0.54,0.484-1.219,0.609-1.918C33.176,67.97,29.765,62.665,27.899,56.966z"/>
</svg>